<svg id="图层_1" data-name="图层 1" xmlns="http://www.w3.org/2000/svg"
	 viewBox="0 0 206.79 66.04">
	<defs>
		<style>.cls-1{fill:#6db33f;}</style>
	</defs>
	<title>jcohy</title>
	<path class="cls-1"
		  d="M481.49,452.5q-6.92,0-10.19-4.07t-2.12-11.17h3.6q-.94,5.58,1.58,8.78t7.7,3.19a12.37,12.37,0,0,0,8.68-3.19,14.4,14.4,0,0,0,4.36-8.71l5.47-35.12H487.1l.58-3.41h17.06l-6,38.53a18.15,18.15,0,0,1-5.76,11.1A16.7,16.7,0,0,1,481.49,452.5Z"
		  transform="translate(-468.88 -398.8)"/>
	<path class="cls-1"
		  d="M526.63,452.5q-6.55,0-9.72-4T514.75,438l2-12.33a18.33,18.33,0,0,1,2.95-7.66,15.53,15.53,0,0,1,5.72-5,16.68,16.68,0,0,1,7.81-1.82q6.55,0,9.83,3.74t2.27,10.05h-3.6c.53-3.29,0-5.85-1.66-7.69s-4.1-2.76-7.41-2.76a11.91,11.91,0,0,0-8.21,2.94,13.14,13.14,0,0,0-4.1,8.24L518.35,438q-.79,5.24,1.59,8.2t7.27,3a11.77,11.77,0,0,0,12.31-10.45h3.6a15.88,15.88,0,0,1-5.47,10.05A16.6,16.6,0,0,1,526.63,452.5Z"
		  transform="translate(-468.88 -398.8)"/>
	<path class="cls-1"
		  d="M569.69,452.5q-6.35,0-9.54-4T558,438l1.94-12.33a18.48,18.48,0,0,1,3-7.66,15.64,15.64,0,0,1,5.68-5,16.36,16.36,0,0,1,7.71-1.82q6.4,0,9.57,4T588,425.65L586,438a17,17,0,0,1-5.47,10.56A15.81,15.81,0,0,1,569.69,452.5Zm.5-3.2a11.54,11.54,0,0,0,8.17-3,14,14,0,0,0,4.07-8.35l1.94-12.33q.87-5.37-1.44-8.35t-7.2-3a11.57,11.57,0,0,0-8.13,3,14,14,0,0,0-4.11,8.35L561.55,438c-.58,3.58-.11,6.37,1.4,8.35S566.88,449.3,570.19,449.3Z"
		  transform="translate(-468.88 -398.8)"/>
	<path class="cls-1"
		  d="M599.35,451.77l8.35-53h3.6l-1.73,10.88-1.29,8h.29a11.88,11.88,0,0,1,4.75-4.78,14,14,0,0,1,7-1.75q5.83,0,8.75,3.78T631,425.14l-4.18,26.63h-3.6l4.11-26.12c.57-3.58.13-6.38-1.33-8.38s-3.76-3-6.88-3a11.37,11.37,0,0,0-8,3.05,13.81,13.81,0,0,0-4.07,8.35L603,451.77Z"
		  transform="translate(-468.88 -398.8)"/>
	<path class="cls-1"
		  d="M644.57,464.83l.57-3.26h10.44q8.64,0,10.08-8.71l.72-4.72,1.08-6.82a12.59,12.59,0,0,1-4.79,5.52,13.64,13.64,0,0,1-7.45,2q-5.84,0-8.75-3.81t-1.9-10.2l3.6-23h3.6l-3.53,22.5q-.87,5.37,1.37,8.38t6.84,3a11.35,11.35,0,0,0,8-3.05,13.73,13.73,0,0,0,4.07-8.34l3.53-22.5h3.6l-6.41,41q-1.93,12-14.25,12Z"
		  transform="translate(-468.88 -398.8)"/>
</svg>